<svg height="512" viewBox="0 0 60 60" width="512" xmlns="http://www.w3.org/2000/svg">
  <g id="Page-1" fill-rule="evenodd">
    <g id="005---Dairy-Products" fill-rule="nonzero">
      <path id="Shape"
        d="m3 60h52c2.7600532-.0033061 4.9966939-2.2399468 5-5v-43c-.0053076-.0373728-.0126519-.074428-.022-.111-.0065641-.0678436-.0199655-.1348505-.04-.2-.0205783-.0604445-.0470384-.1187238-.079-.174-.0281432-.0545229-.0616415-.1061104-.1-.154-.044446-.0519288-.0944062-.0988713-.149-.14-.03-.023-.049-.055-.082-.076l-12.528-7.704v-2.441c0-.55228475-.4477153-1-1-1s-1 .44771525-1 1v2.441l-12.524 7.707c-.033.021-.051.053-.081.076-.1060841.0779261-.1932432.1787572-.255.295-.0312226.0548185-.0573328.1123948-.078.172-.0198416.0651982-.0332391.1321857-.04.2-.009442.0358757-.0167877.0722706-.022.109v19.89l-17.522-5.476c-1.0215422-.3128879-2.1154446-.2978503-3.128.043-9.25 3.111-11.234 9.987-11.314 10.278-.00681051.0446747-.01015383.0898094-.01.135-.01173176.0426635-.02042026.0861061-.026.13v20c0 1.6568542 1.34314575 3 3 3zm30-2h-30c-.55228475 0-1-.4477153-1-1v-19h42v19c0 .5522847-.4477153 1-1 1zm22 0h-9.184c.1184378-.320257.1806856-.6585603.184-1v-12h12v10c0 1.6568542-1.3431458 3-3 3zm-9-52.826 9.467 5.826h-18.934zm-12 7.826h24v10h-24zm0 12h24v18h-12v-6c0-.017-.009-.031-.01-.047-.0060264-.0696417-.0197775-.1383975-.041-.205-.0122876-.0589525-.0293437-.1168094-.051-.173-.0304445-.0551591-.0659292-.1073819-.106-.156-.0346288-.053489-.0744916-.1034014-.119-.149-.0466508-.037621-.0965081-.0710823-.149-.1-.0572896-.039715-.1186333-.0732361-.183-.1-.016-.006-.026-.019-.043-.024l-11.298-3.531zm-22.012 3.352c.6123647-.2078312 1.2745564-.2179758 1.893-.029l24.566 7.677h-35.959c.968-1.943 3.512-5.633 9.5-7.648z" />
      <path id="Shape"
        d="m7 40c-1.65685425 0-3 1.3431458-3 3s1.34314575 3 3 3 3-1.3431458 3-3-1.34314575-3-3-3zm0 4c-.55228475 0-1-.4477153-1-1s.44771525-1 1-1 1 .4477153 1 1-.44771525 1-1 1z" />
      <path id="Shape"
        d="m14.5 47c-1.9329966 0-3.5 1.5670034-3.5 3.5s1.5670034 3.5 3.5 3.5 3.5-1.5670034 3.5-3.5-1.5670034-3.5-3.5-3.5zm0 5c-.8284271 0-1.5-.6715729-1.5-1.5s.6715729-1.5 1.5-1.5 1.5.6715729 1.5 1.5-.6715729 1.5-1.5 1.5z" />
      <path id="Shape"
        d="m25 39c-1.6568542 0-3 1.3431458-3 3s1.3431458 3 3 3 3-1.3431458 3-3-1.3431458-3-3-3zm0 4c-.5522847 0-1-.4477153-1-1s.4477153-1 1-1 1 .4477153 1 1-.4477153 1-1 1z" />
      <path id="Shape"
        d="m37 48c-2.209139 0-4 1.790861-4 4s1.790861 4 4 4 4-1.790861 4-4-1.790861-4-4-4zm0 6c-1.1045695 0-2-.8954305-2-2s.8954305-2 2-2 2 .8954305 2 2-.8954305 2-2 2z" />
      <circle id="Oval" cx="14" cy="31" r="1" />
      <circle id="Oval" cx="17" cy="42" r="1" />
      <circle id="Oval" cx="6" cy="53" r="1" />
      <circle id="Oval" cx="25" cy="54" r="1" />
      <circle id="Oval" cx="39" cy="42" r="1" />
      <circle id="Oval" cx="32" cy="47" r="1" />
      <circle id="Oval" cx="20" cy="33" r="1" />
      <circle id="Oval" cx="9" cy="33" r="1" />
      <path id="Shape"
        d="m39 15h-2c-.5522847 0-1 .4477153-1 1s.4477153 1 1 1h2c.5522847 0 1-.4477153 1-1s-.4477153-1-1-1z" />
      <path id="Shape"
        d="m54 15h-10c-.5522847 0-1 .4477153-1 1s.4477153 1 1 1h10c.5522847 0 1-.4477153 1-1s-.4477153-1-1-1z" />
    </g>
  </g>
</svg>