<svg height="512" viewBox="0 0 128 128" width="512" xmlns="http://www.w3.org/2000/svg">
  <g>
    <path
      d="m122.586 31.108a16.658 16.658 0 0 0 -10.2-3.367c3.331-4.84 4.572-9.6 3.791-14.469a1.747 1.747 0 0 0 -1.45-1.45c-4.869-.782-9.63.461-14.469 3.791a16.656 16.656 0 0 0 -3.367-10.2 1.751 1.751 0 0 0 -2.119-.5c-2.638 1.245-10.609 8.13-14.049 23.2-6.967-2.1-15.594 1.192-30 15.6-21.41 21.409-54.355 67.1-43.945 77.508a7.842 7.842 0 0 0 5.769 1.982c16.187 0 53.134-27.32 71.739-45.927 14.407-14.407 17.7-23.034 15.6-30 15.068-3.44 21.953-11.41 23.2-14.049a1.75 1.75 0 0 0 -.5-2.119zm-40.775 43.692c-3.488 3.487-7.48 7.142-11.753 10.793l-3.913-3.913a1.75 1.75 0 1 0 -2.475 2.474l3.7 3.7a261.275 261.275 0 0 1 -28.105 20.456c-18.4 11.421-27.571 12.88-30.013 10.438s-.982-11.609 10.438-30.013a258.412 258.412 0 0 1 33.51-42.546 83.38 83.38 0 0 1 13.41-11.323l4.386 4.387a1.75 1.75 0 1 0 2.475-2.475l-3.712-3.713a16.263 16.263 0 0 1 7.182-1.948c5.125 0 8.63 3.5 12.536 7.41 7.989 7.994 14.302 14.307-7.666 36.273zm16.659-30.79a38.8 38.8 0 0 0 -6.523-7.957 38.8 38.8 0 0 0 -7.956-6.523c2.593-12 8.271-18.407 11.05-20.626 2.656 4.61 1.43 10.105 1.416 10.161a1.751 1.751 0 0 0 2.855 1.723c4.679-4.088 9.133-5.948 13.557-5.657.29 4.428-1.57 8.877-5.657 13.557a1.751 1.751 0 0 0 1.723 2.855c.061-.015 5.533-1.265 10.162 1.415-2.218 2.778-8.627 8.458-20.627 11.052z" />
    <path
      d="m92.664 18.419a1.754 1.754 0 0 0 -2.363.736 40 40 0 0 0 -2.633 6.345 1.749 1.749 0 0 0 1.132 2.2 1.721 1.721 0 0 0 .535.084 1.749 1.749 0 0 0 1.665-1.216 36.575 36.575 0 0 1 2.4-5.786 1.749 1.749 0 0 0 -.736-2.363z" />
    <path d="m33.356 94.715a1.749 1.749 0 1 0 -2.474 2.474l4.974 4.975a1.75 1.75 0 1 0 2.475-2.475z" />
    <path d="m18.171 102.57a1.75 1.75 0 0 0 -2.475 2.475l3.317 3.316a1.749 1.749 0 0 0 2.474-2.474z" />
    <path d="m52.162 56.515a1.75 1.75 0 1 0 -2.475 2.474l3.313 3.316a1.75 1.75 0 0 0 2.475-2.475z" />
    <path d="m74.745 48.28a1.75 1.75 0 0 0 -2.474 2.475l4.974 4.974a1.75 1.75 0 1 0 2.475-2.474z" />
    <path d="m37.978 75.308a1.75 1.75 0 1 0 -2.478 2.474l4.974 4.975a1.75 1.75 0 0 0 2.474-2.475z" />
    <path d="m72.12 63.617a1.75 1.75 0 0 0 -2.474 2.475l4.973 4.974a1.75 1.75 0 1 0 2.475-2.474z" />
  </g>
</svg>