<svg id="Layer_3" enable-background="new 0 0 64 64" height="512" viewBox="0 0 64 64" width="512" xmlns="http://www.w3.org/2000/svg"><g><path d="m63 23c0-6.054-4.549-11.152-10.479-11.904-1.229-3.622-4.638-6.096-8.521-6.096-.933 0-1.842.162-2.71.438-2.271-2.782-5.679-4.438-9.29-4.438-3.605 0-7.026 1.637-9.298 4.413-.871-.274-1.777-.413-2.702-.413-3.888 0-7.296 2.479-8.523 6.108-5.899.752-10.477 5.792-10.477 11.892 0 6.095 4.571 11.132 10.463 11.89 5.654 5.722 9.523 12.895 11.18 20.771l1.044 4.956c.291 1.381 1.525 2.383 2.936 2.383h10.754c1.411 0 2.646-1.002 2.936-2.382l1.044-4.957c1.658-7.876 5.527-15.049 11.18-20.771 5.892-.758 10.463-5.795 10.463-11.89zm-23.601 32.249-1.044 4.958c-.096.459-.507.793-.978.793h-10.754c-.471 0-.882-.334-.979-.794l-1.044-4.957c-1.6-7.607-5.183-14.579-10.371-20.321 1.448-.149 2.859-.55 4.155-1.201.873.523 1.837.878 2.831 1.077l2.389 7.168c.403 1.214 1.533 2.028 2.811 2.028 1.386 0 2.604-.983 2.897-2.338l.64-2.966c.65.196 1.337.304 2.048.304.708 0 1.395-.11 2.046-.31l.642 2.972c.292 1.355 1.511 2.338 2.897 2.338 1.278 0 2.408-.814 2.811-2.026l2.391-7.173c.987-.2 1.94-.562 2.814-1.08 1.287.647 2.696 1.061 4.169 1.211-5.187 5.74-8.77 12.711-10.371 20.317zm-16.019-20.272c.723-.028 1.441-.131 2.135-.333.532 1.317 1.44 2.411 2.581 3.175l-.738 3.421c-.095.44-.491.76-.942.76-.415 0-.782-.265-.914-.659zm12.521 2.826c1.139-.767 2.05-1.86 2.582-3.16.695.203 1.414.31 2.137.337l-2.121 6.361c-.132.394-.499.659-.914.659-.451 0-.848-.319-.942-.76zm15.099-4.803c-3.756 0-7.162-2.074-8.889-5.413l-1.777.918c.818 1.582 1.953 2.922 3.301 3.971-1.575.633-3.366.692-4.96.13-.168-.222-.426-.371-.72-.394-.495-.031-.955.302-1.057.797-.473 2.312-2.533 3.991-4.898 3.991-2.322 0-4.311-1.563-4.858-3.81-.014-.088-.04-.174-.079-.258-.229-.492-.811-.71-1.302-.498-2.184.938-4.8.678-6.756-.688-.315-.22-.729-.24-1.067-.049-1.497.853-3.204 1.303-4.938 1.303-5.514 0-10-4.486-10-10s4.486-10 10-10c1.954 0 3.845.562 5.47 1.627l1.096-1.672c-1.764-1.156-3.789-1.814-5.893-1.931 1.133-2.418 3.571-4.024 6.327-4.024.894 0 1.764.166 2.588.493.188.099.409.135.617.1.265-.042.5-.188.656-.405 1.877-2.623 4.92-4.188 8.139-4.188 2.827 0 5.516 1.208 7.401 3.277-1.303.776-2.417 1.873-3.199 3.226l1.732 1c1.249-2.16 3.574-3.503 6.066-3.503 3.188 0 5.967 2.145 6.771 5.22.086.436.455.772.914.804 5.223.352 9.315 4.735 9.315 9.976 0 5.514-4.486 10-10 10z"/><path d="m23 29c-.849 0-1.659-.365-2.224-1.003-1.022-1.154-2.807-1.283-4.065-.288-1.066.845-2.35 1.291-3.711 1.291-3.309 0-6-2.691-6-6h-2c0 4.411 3.589 8 8 8 1.816 0 3.529-.596 4.952-1.723.419-.331 1.012-.31 1.327.046.944 1.066 2.3 1.677 3.721 1.677 2.757 0 5-2.243 5-5h-2c0 1.654-1.346 3-3 3z"/></g></svg>